<?xml version="1.0" encoding="UTF-8"?><svg xmlns="http://www.w3.org/2000/svg" xmlns:xlink="http://www.w3.org/1999/xlink" height="3474.1" preserveAspectRatio="xMidYMid meet" version="1.0" viewBox="620.5 260.2 2821.3 3474.1" width="2821.3" zoomAndPan="magnify"><g><g><g id="change1_1"><path d="M3306.37,1277.08l-28.74,74.78c-3.7,9.66-10.24,16.94-18.12,21.62c-17.16,10.19-40.7,7.98-55.23-9.22 l-77.17-91.25l65.56-10.79l100.97-16.61L3306.37,1277.08z" fill="#ede7ce"/></g><g id="change2_2"><path d="M3259.5,1373.48c-17.16,10.19-40.7,7.98-55.23-9.22l-77.17-91.25l65.56-10.79 c3.86,14.92,10.74,37.17,22.49,63.29C3236.93,1373.9,3259.5,1373.48,3259.5,1373.48z" fill="#020202" opacity=".1"/></g><g id="change1_2"><path d="M3163.7,1572.2l-28.74-74.78c-3.7-9.66-10.24-16.94-18.12-21.62c-17.16-10.19-40.7-7.98-55.23,9.22 l-77.17,91.25l65.56,10.79l100.97,16.61L3163.7,1572.2z" fill="#ede7ce"/></g><g id="change2_3"><path d="M3116.84,1475.8c-17.16-10.19-40.7-7.98-55.23,9.22l-77.17,91.25l65.56,10.79 c3.86-14.93,10.74-37.17,22.49-63.29C3094.26,1475.38,3116.84,1475.8,3116.84,1475.8z" fill="#020202" opacity=".1"/></g><g id="change1_3"><path d="M3010.47,1560.45l-28.74-74.78c-3.7-9.66-10.24-16.94-18.12-21.62c-17.16-10.19-40.7-7.98-55.23,9.22 l-77.17,91.25l65.56,10.79l100.97,16.61L3010.47,1560.45z" fill="#ede7ce"/></g><g id="change2_4"><path d="M2963.61,1464.04c-17.16-10.19-40.7-7.98-55.23,9.22l-77.17,91.25l65.56,10.79 c3.86-14.92,10.74-37.17,22.49-63.29C2941.03,1463.62,2963.61,1464.04,2963.61,1464.04z" fill="#020202" opacity=".1"/></g><g id="change1_4"><path d="M2873.78,1529.5l-25.29-76.02c-3.26-9.82-9.45-17.39-17.11-22.43c-16.68-10.96-40.29-9.84-55.59,6.68 l-81.27,87.62l65,13.78l100.11,21.22L2873.78,1529.5z" fill="#ede7ce"/></g><g id="change2_5"><path d="M2831.38,1431.05c-16.68-10.96-40.29-9.84-55.59,6.68l-81.27,87.62l65,13.78 c4.54-14.73,12.43-36.64,25.37-62.19C2808.85,1429.6,2831.38,1431.05,2831.38,1431.05z" fill="#020202" opacity=".1"/></g><g id="change1_5"><path d="M2745.14,1484.23l-12.3-79.16c-1.58-10.22-6.43-18.72-13.14-24.96c-14.62-13.58-38.09-16.4-55.93-2.65 l-94.71,72.89l61.8,24.4l95.18,37.57L2745.14,1484.23z" fill="#ede7ce"/></g><g id="change2_6"><path d="M2719.7,1380.1c-14.62-13.58-38.09-16.4-55.93-2.65l-94.71,72.89l61.8,24.4 c6.92-13.77,18.35-34.06,35.36-57.11C2697.72,1374.92,2719.7,1380.1,2719.7,1380.1z" fill="#020202" opacity=".1"/></g><g id="change1_6"><path d="M3163.7,1293.69l-28.74,74.78c-3.7,9.66-10.24,16.94-18.12,21.62c-17.16,10.19-40.7,7.98-55.23-9.22 l-77.17-91.25l65.56-10.79l100.97-16.61L3163.7,1293.69z" fill="#ede7ce"/></g><g id="change2_7"><path d="M3116.84,1390.09c-17.16,10.19-40.7,7.98-55.23-9.22l-77.17-91.25l65.56-10.79 c3.86,14.92,10.74,37.17,22.49,63.29C3094.26,1390.51,3116.84,1390.09,3116.84,1390.09z" fill="#020202" opacity=".1"/></g><g id="change1_7"><path d="M3022.2,1305.95l-39.2,69.87c-5.05,9.02-12.57,15.29-21.04,18.79c-18.45,7.61-41.42,2.04-53.33-17.07 l-63.24-101.41l66.43-1.25l102.31-1.91L3022.2,1305.95z" fill="#ede7ce"/></g><g id="change2_8"><path d="M2961.96,1394.61c-18.45,7.61-41.42,2.04-53.33-17.07l-63.24-101.41l66.43-1.25 c1.67,15.32,5.28,38.33,13.15,65.87C2939.55,1391.77,2961.96,1394.61,2961.96,1394.61z" fill="#020202" opacity=".1"/></g><g id="change1_8"><path d="M2885.89,1308.24l-51.42,61.43c-6.63,7.94-15.18,12.71-24.15,14.59c-19.54,4.08-41.09-5.64-49.26-26.62 l-43.44-111.33l65.52,11.03l100.91,17L2885.89,1308.24z" fill="#ede7ce"/></g><g id="change2_9"><path d="M2810.32,1384.26c-19.54,4.08-41.09-5.64-49.26-26.62l-43.44-111.33l65.52,11.03 c-1.19,15.37-1.88,38.64,0.77,67.16C2788.82,1377.34,2810.32,1384.26,2810.32,1384.26z" fill="#020202" opacity=".1"/></g><g id="change1_9"><path d="M2751.2,1288.8l-51.42,61.43c-6.63,7.94-15.18,12.71-24.15,14.59c-19.54,4.08-41.09-5.64-49.26-26.62 l-43.44-111.33l65.52,11.03l100.91,17L2751.2,1288.8z" fill="#ede7ce"/></g><g id="change2_10"><path d="M2675.63,1364.82c-19.54,4.08-41.09-5.64-49.26-26.62l-43.44-111.33l65.52,11.03 c-1.19,15.37-1.88,38.64,0.77,67.16C2654.14,1357.9,2675.63,1364.82,2675.63,1364.82z" fill="#020202" opacity=".1"/></g><g id="change3_1"><path d="M1635.07,2595.32c1.51,10.55-138.57,21.8-284.1,30.65c-156.53,9.51-319.38,16.22-319.38,16.22 c-249.69-425.29-222.48-701.06-165.44-849.51c11.83-30.76,37.47-50.28,66.01-56.41c29.35-6.32,61.77,1.54,85.34,25.92 c153.73,158.96,481.55,292.67,481.55,292.67S1631.94,2573.45,1635.07,2595.32z" fill="#46e846"/></g><g id="change1_10"><path d="M1181.9,1772l-14.92,93.01c-3.89,24.26-30.33,37.56-52.2,26.36c-33.13-16.96-58.06-38.2-75.82-57.13 c-6.02-6.42-11.25-12.62-15.69-18.3c-11.91-15.21-8.52-37.33,7.27-48.46l67.7-47.72c21.95-15.45,48.31-11.63,65.65,3.09 C1177.15,1734.12,1185.15,1751.74,1181.9,1772z" fill="#ede7ce"/></g><g id="change2_11"><path d="M1163.88,1722.86c-6.22,2.72-64.86,29.68-115.89,98.64c-3.05,4.1-6.06,8.34-9.04,12.75 c-5.89-6.27-11.01-12.33-15.39-17.91c-12.07-15.36-8.9-37.67,7.07-48.92l67.59-47.65 C1120.18,1704.31,1146.54,1708.13,1163.88,1722.86z" fill="#020202" opacity=".1"/></g><g id="change1_11"><path d="M2342.52,516.92c17.17,39.46-5.05,85.04-46.78,95.53c-56.23,14.13-132.02,23.44-216.26,7.34 c-24.3-4.64-49.3-11.4-74.73-20.76c-27.26-10.04-40.68-40.78-29.71-67.68l79.74-195.53c21.38-52.39,72.51-75.57,120.05-69.15 c36.33,4.91,70.58,27.1,87.83,66.76L2342.52,516.92z" fill="#ede7ce"/></g><g id="change2_12"><path d="M2174.83,266.67c-7.87,11.79-80.07,124.36-93.29,301.97c-1.23,16.49-1.94,33.56-2.06,51.16 c-24.04-4.59-48.76-11.25-73.91-20.46c-27.73-10.15-41.35-41.45-30.2-68.8l79.41-194.71 C2076.16,283.43,2127.29,260.25,2174.83,266.67z" fill="#020202" opacity=".1"/></g><g id="change1_12"><path d="M1979.93,588.55l-258,182.29l-120.51,85.15l-74.65-316.39c-12.98-55.08,15.21-103.62,57.66-125.98 c32.44-17.08,73.21-18.87,110.27,3.42L1979.93,588.55z" fill="#ede7ce"/></g><g id="change2_13"><path d="M1721.93,770.84l-120.51,85.15l-74.65-316.39c-12.98-55.08,15.21-103.62,57.66-125.98 C1584.91,429.54,1593.06,596.21,1721.93,770.84z" fill="#020202" opacity=".1"/></g><g id="change1_13"><path d="M1646,776.23l-146.97,279.63l-68.65,130.62l-210.3-247.9c-36.59-43.16-33.54-99.21-5.89-138.42 c21.13-29.96,56.63-50.09,99.77-47.07L1646,776.23z" fill="#ede7ce"/></g><g id="change2_14"><path d="M1499.04,1055.86l-68.65,130.62l-210.3-247.9c-36.59-43.16-33.54-99.21-5.89-138.42 C1221.87,814.13,1304.88,958.87,1499.04,1055.86z" fill="#020202" opacity=".1"/></g><g id="change1_14"><path d="M1508.59,1165.34l20.93,315.21l9.78,147.23l-308.87-101.36c-53.76-17.66-80.46-67.03-77.4-114.91 c2.35-36.59,22.09-72.3,60.44-92.29L1508.59,1165.34z" fill="#ede7ce"/></g><g id="change2_15"><path d="M1529.52,1480.55l9.78,147.23l-308.87-101.36c-53.76-17.66-80.46-67.03-77.4-114.91 C1166.86,1419.41,1313.31,1499.39,1529.52,1480.55z" fill="#020202" opacity=".1"/></g><g id="change1_15"><path d="M1589.84,1627.78l-83.12,304.77l-38.82,142.36l-258.86-196.64c-45.05-34.24-54.17-89.63-35.64-133.88 c14.17-33.82,44.48-61.13,87.25-67.51L1589.84,1627.78z" fill="#ede7ce"/></g><g id="change2_16"><path d="M1506.72,1932.55l-38.82,142.36l-258.86-196.64c-45.05-34.24-54.17-89.63-35.64-133.88 C1183.89,1756.37,1296.2,1879.78,1506.72,1932.55z" fill="#020202" opacity=".1"/></g><g id="change1_16"><path d="M1457.06,1980.81l-83.12,304.77l-38.82,142.36l-258.86-196.64c-45.05-34.24-54.17-89.63-35.64-133.88 c14.17-33.82,44.48-61.13,87.25-67.51L1457.06,1980.81z" fill="#ede7ce"/></g><g id="change2_17"><path d="M1373.94,2285.58l-38.82,142.36l-258.86-196.64c-45.05-34.24-54.17-89.63-35.64-133.88 C1051.11,2109.4,1163.42,2232.8,1373.94,2285.58z" fill="#020202" opacity=".1"/></g><g id="change3_2"><path d="M3313.74,1279.04c-14.02,3.5-27.9,6.77-41.63,9.81c-476.19,105.25-783.13-63.97-783.13-63.97 s60.09,289.3,644.52,333.87c12.21,0.93,24.65,1.76,37.33,2.47c11.73,0.67,20.42,11.23,18.73,22.86 c-7.32,50.51-40.25,173.54-188.22,203.14c-21.45,4.29-44.16,7.05-67.55,8.57h-0.01c-15.72,1.04-31.74,1.5-47.9,1.5h-0.1 c-11.99,0-24.06-0.26-36.12-0.74c-157.72-6.24-316.34-50.24-319-50.96l0.12,0.06l0.14,0.08c0.83,0.49,3.47,2.04,7.65,4.68 l0.06,0.05c16.25,10.3,55.58,37.02,102.41,81.52c105.64,100.38,249.37,291.27,252,588.39l-47.82,33.76l-731.13,516.09 l-643.51-197.56l-306.21-94.02l64.55-208.28c43.74-506.1,237.43-587.34,287.42-812.27c46.98-211.38-297.82-577.27,106.4-921.32 c0.01-0.01,0.01-0.03,0.01-0.03c25.92-22.06,54.92-44.03,87.29-65.87c335.83-226.49,610.67-128.37,769.55-22.93 c110.39,73.25,241.7,108.63,374.03,102c165.62-8.29,375.97,8.9,460.12,133.37c10.27,15.18,19.11,30.16,26.67,44.9 c0,0.01,0,0.01,0.01,0.02C3441.79,1125.74,3313.74,1279.04,3313.74,1279.04z" fill="#46e846"/></g><g><g id="change4_1"><circle cx="2261.41" cy="896.25" fill="#fff" r="243.23"/></g><g id="change2_1"><path d="M2324.76,697.76c-91.12,0-164.98,73.88-164.98,164.99s73.86,164.98,164.98,164.98 c91.12,0,164.99-73.86,164.99-164.98S2415.88,697.76,2324.76,697.76z M2379.73,862.76c-30.36,0-54.98-24.62-54.98-54.99 c0-30.36,24.62-54.98,54.98-54.98c30.37,0,54.98,24.62,54.98,54.98C2434.71,838.14,2410.11,862.76,2379.73,862.76z" fill="#020202"/></g></g><g id="change4_2"><path d="M2893.04,2420.37l-47.82,33.76c-83.34-490.96-314.44-708.48-314.44-708.48l0.15,0.08 c0.83,0.49,3.47,2.04,7.65,4.68l0.06,0.05c16.25,10.3,55.58,37.01,102.41,81.51C2746.68,1932.36,2890.41,2123.25,2893.04,2420.37z" fill="#fff" opacity=".3"/></g><g id="change2_18"><path d="M1350.97,2625.97c-156.53,9.51-319.38,16.22-319.38,16.22c-249.69-425.29-222.48-701.06-165.44-849.51 c11.83-30.76,37.47-50.28,66.01-56.41C932.16,1736.27,849.77,2263.82,1350.97,2625.97z" fill="#020202" opacity=".1"/></g><g id="change2_19"><path d="M2804.1 2445.42L2324.47 2083.28 1993.45 2437.52 1525.99 2097.6 1178.16 2472.49 2292.28 2609.67z" fill="#020202" opacity=".2"/></g><g id="change2_20"><path d="M1470.58,2772.65l-306.21-94.02l64.55-208.27c43.74-506.11,237.43-587.35,287.42-812.27 c46.98-211.38-297.82-577.27,106.4-921.32c-2.38,3.05-218.74,283-32.9,659.43c186.86,378.52-131.96,643.01-132.78,1007.52 C1456.7,2564.74,1463.19,2686.69,1470.58,2772.65z" fill="#020202" opacity=".1"/></g><g id="change5_1"><path d="M3188.78,2401.26c0,394.19-164.79,748.4-426.75,992.45c-0.02,0.02-0.02,0.02-0.03,0.03 c-129.88,121.01-283.65,214.93-453.04,273.21c-127.13,43.74-263.04,67.42-404.3,67.42c-709.21,0-1284.13-596.85-1284.13-1333.12 c0-107.38,12.23-211.79,35.33-311.82l384.03,311.82l255.48-196.88l114.5-88.24l149.32,101.03l94.36,63.82l177.75,120.26 l383.16-307.75l182.76,135.68l168.32,124.96l63.45,47.11l456.05-326.35l54.83-39.23h0.02 C3171.74,2151.86,3188.78,2274.5,3188.78,2401.26z" fill="#edb266"/></g><g id="change2_21"><path d="M2595.51,2427.94l-167.26,168.78c-196.62-98.78-63.01-319.8-31.04-367.52l168.32,124.96L2595.51,2427.94z" fill="#020202" opacity=".2"/></g><g id="change2_22"><path d="M1758.75,2414.02l-167.26,168.78c-194.13-97.53-66.35-314.23-32.3-365.63l94.36,63.82l79.41,56.06 L1758.75,2414.02z" fill="#020202" opacity=".2"/></g><g id="change3_3"><path d="M2923.65,2571.54v0.02c-13.36,13.51-29.98,24.15-49.13,30.57c-89.19,29.9-168.42,40.24-235.62,40.03 c-72.59-0.19-131.13-12.65-173.02-25.95c-48.81-15.5-83.26-59.29-87.09-110.35c-12.99-174.11,87.09-265.49,167.55-310.36 c32.03-17.87,67.32-27.93,103.01-29.85c27.96-1.54,56.16,1.94,83.2,10.55c8.63,2.75,17.14,6.03,25.48,9.83 c122.01,55.6,175.06,176.05,198.08,265.78C2967.42,2495.93,2953.83,2541.04,2923.65,2571.54z" fill="#46e846"/></g><g id="change3_4"><path d="M1675.41,2219.7c-80.46,44.88-180.55,136.25-167.55,310.35c3.81,51.07,38.27,94.85,87.08,110.35 c80.66,25.62,223.07,48.15,408.64-14.07c62.35-20.91,97.92-86.64,81.59-150.33c-23.01-89.73-76.07-210.18-198.08-265.77 C1819.22,2179.3,1740.55,2183.37,1675.41,2219.7z" fill="#46e846"/></g><g id="change2_23"><ellipse cx="1691.3" cy="1428.1" fill="#020202" opacity=".1" rx="56.23" ry="115.44"/></g><g id="change2_24"><ellipse cx="2595.51" cy="2309.69" fill="#020202" opacity=".1" rx="53.85" ry="46.11"/></g><g id="change2_25"><ellipse cx="1858.22" cy="2290.76" fill="#020202" opacity=".1" rx="53.85" ry="33.8"/></g><g id="change2_26"><ellipse cx="2716.83" cy="2256.96" fill="#020202" opacity=".1" rx="37.71" ry="21.79"/></g><g id="change2_27"><ellipse cx="1735.09" cy="2241.79" fill="#020202" opacity=".1" rx="37.71" ry="21.79"/></g><g id="change2_28"><ellipse cx="1666.23" cy="2307.66" fill="#020202" opacity=".1" rx="31.16" ry="16.9"/></g><g id="change2_29"><ellipse cx="1556.68" cy="1139.49" fill="#020202" opacity=".1" rx="66.08" ry="115.44"/></g><g id="change2_30"><ellipse cx="1611.36" cy="1700.37" fill="#020202" opacity=".1" rx="86.18" ry="35.91" transform="rotate(-73.566 1611.423 1700.448)"/></g><g id="change2_31"><ellipse cx="1031.59" cy="1895.39" fill="#020202" opacity=".1" rx="24.89" ry="51.53" transform="rotate(-45.001 1031.572 1895.409)"/></g><g id="change2_32"><ellipse cx="1140.82" cy="1946.01" fill="#020202" opacity=".1" rx="16.14" ry="25.86" transform="rotate(-45.001 1140.808 1946.028)"/></g><g id="change2_33"><ellipse cx="1514.93" cy="1902.21" fill="#020202" opacity=".1" rx="54.06" ry="24.96" transform="rotate(-73.566 1514.99 1902.296)"/></g><g id="change2_34"><ellipse cx="1697.38" cy="1860.28" fill="#020202" opacity=".1" rx="59.88" ry="34.49" transform="rotate(-73.566 1697.45 1860.369)"/></g><g id="change2_35"><path d="M2641.05,1831.97c-430.02-30.57-652.08-142.55-736.38-256.66c-86.55-117.15-46.44-262.72-46.44-262.72 c10.71,370.97,672.44,432.98,672.44,432.98l0.11,0.06l7.79,4.76l0.06,0.05C2554.88,1760.76,2594.21,1787.47,2641.05,1831.97z" fill="#020202" opacity=".1"/></g><g id="change2_36"><ellipse cx="3157.94" cy="904.27" fill="#020202" rx="30.84" ry="41.52" transform="rotate(-6.212 3156.492 903.948)"/></g><g id="change2_37"><path d="M2638.91,2642.15c-72.59-0.19-131.13-12.65-173.02-25.95c-48.81-15.5-83.26-59.29-87.09-110.35 c-12.99-174.11,87.09-265.49,167.55-310.36c32.03-17.87,67.32-27.93,103.01-29.85v0.02 C2649.36,2165.66,2324.47,2341.21,2638.91,2642.15z" fill="#020202" opacity=".1"/></g><g id="change2_38"><path d="M1767.97,2666.19c-72.59-0.19-131.13-12.65-173.02-25.95c-48.81-15.5-83.26-59.29-87.09-110.35 c-12.99-174.11,87.09-265.49,167.55-310.36c32.03-17.87,67.32-27.93,103.01-29.85v0.02 C1778.42,2189.7,1453.53,2365.24,1767.97,2666.19z" fill="#020202" opacity=".1"/></g><g id="change1_17"><path d="M2818.99,2654.01c-9.09,3.78-17.61,6.19-25.49,7.56c-19.51,3.43-35.1,0.64-45.53-2.77 c-9.72-3.18-16.44-11.92-17.17-22.11c-2.73-38.03,12.72-101.46,51.28-90.71c2.84,0.79,5.82,1.99,8.92,3.63 c35.78,18.93,42.43,58.4,43.15,80.81C2834.47,2640.66,2828.45,2650.06,2818.99,2654.01z" fill="#ede7ce"/></g><g id="change2_39"><path d="M2793.5,2661.57c-19.51,3.43-35.1,0.64-45.53-2.77c-9.72-3.18-16.44-11.92-17.17-22.11 c-2.73-38.03,12.72-101.46,51.28-90.71c0,0-25.79,10.35-25.77,45.89C2756.33,2627.41,2765.27,2653.67,2793.5,2661.57z" fill="#020202" opacity=".1"/></g><g id="change1_18"><path d="M2678.14,2667.82c-9.45,2.75-18.19,4.2-26.17,4.69c-19.77,1.25-34.95-3.25-44.94-7.8 c-9.31-4.23-15.02-13.66-14.62-23.88c1.49-38.1,23.88-99.43,61.01-84.47c2.74,1.1,5.56,2.62,8.46,4.6 c33.47,22.77,35.7,62.74,33.94,85.09C2695.01,2656.26,2687.98,2664.95,2678.14,2667.82z" fill="#ede7ce"/></g><g id="change2_40"><path d="M2651.97,2672.51c-19.77,1.25-34.95-3.25-44.94-7.8c-9.31-4.23-15.02-13.66-14.62-23.88 c1.49-38.1,23.88-99.43,61.01-84.47c0,0-26.77,7.43-30.7,42.75C2618.82,2634.45,2624.79,2661.53,2651.97,2672.51z" fill="#020202" opacity=".1"/></g><g id="change4_3"><path d="M2923.65,2571.54c13.41-229.15-140.61-359.12-191.1-395.35c8.63,2.75,17.14,6.03,25.48,9.83 c122.01,55.6,175.06,176.05,198.08,265.78C2967.42,2495.93,2953.83,2541.04,2923.65,2571.54z" fill="#fff" opacity=".3"/></g><g id="change1_19"><path d="M1954.82,2689.84c-9.09,3.78-17.61,6.19-25.49,7.56c-19.51,3.43-35.1,0.64-45.53-2.77 c-9.72-3.18-16.44-11.92-17.17-22.11c-2.73-38.03,12.72-101.46,51.28-90.71c2.84,0.79,5.82,1.99,8.92,3.63 c35.78,18.93,42.43,58.4,43.15,80.81C1970.31,2676.49,1964.28,2685.9,1954.82,2689.84z" fill="#ede7ce"/></g><g id="change2_41"><path d="M1929.33,2697.4c-19.51,3.43-35.1,0.64-45.53-2.77c-9.72-3.18-16.44-11.92-17.17-22.11 c-2.73-38.03,12.72-101.46,51.28-90.71c0,0-25.79,10.35-25.77,45.89C1892.17,2663.25,1901.1,2689.5,1929.33,2697.4z" fill="#020202" opacity=".1"/></g><g id="change1_20"><path d="M1813.98,2703.65c-9.45,2.75-18.19,4.2-26.17,4.69c-19.77,1.25-34.95-3.25-44.94-7.8 c-9.31-4.23-15.02-13.66-14.62-23.88c1.49-38.1,23.88-99.43,61.01-84.47c2.74,1.1,5.56,2.62,8.46,4.6 c33.47,22.77,35.7,62.74,33.94,85.09C1830.84,2692.1,1823.81,2700.78,1813.98,2703.65z" fill="#ede7ce"/></g><g id="change2_42"><path d="M1787.81,2708.34c-19.77,1.25-34.95-3.25-44.94-7.8c-9.31-4.23-15.02-13.66-14.62-23.88 c1.49-38.1,23.88-99.43,61.01-84.47c0,0-26.77,7.43-30.7,42.75C1754.65,2670.28,1760.62,2697.36,1787.81,2708.34z" fill="#020202" opacity=".1"/></g><g id="change4_4"><path d="M2052.71,2596.71c13.41-229.15-140.61-359.12-191.1-395.35c8.63,2.75,17.14,6.03,25.48,9.83 c122.01,55.6,175.06,176.05,198.08,265.78C2096.48,2521.1,2082.89,2566.21,2052.71,2596.71z" fill="#fff" opacity=".3"/></g><g id="change1_21"><path d="M2947.89,2610.57c-8.5,4.97-16.62,8.5-24.24,10.93c-18.87,6.03-34.69,5.37-45.49,3.39 c-10.06-1.84-17.9-9.59-20-19.59c-7.83-37.32-1.06-102.25,38.59-96.79c2.93,0.4,6.03,1.19,9.33,2.4 c38.01,13.93,49.91,52.15,53.65,74.26C2961.43,2595.25,2956.73,2605.39,2947.89,2610.57z" fill="#ede7ce"/></g><g id="change2_43"><path d="M2923.65,2621.49c-18.87,6.03-34.69,5.37-45.49,3.39c-10.06-1.84-17.9-9.59-20-19.59 c-7.83-37.32-1.06-102.25,38.59-96.79c0,0-24.16,13.73-19.35,48.94C2882.22,2592.66,2894.61,2617.47,2923.65,2621.49z" fill="#020202" opacity=".1"/></g><g id="change1_22"><path d="M2083.72,2646.4c-8.5,4.97-16.62,8.5-24.24,10.93c-18.87,6.03-34.69,5.37-45.49,3.39 c-10.06-1.84-17.9-9.59-20-19.59c-7.83-37.32-1.06-102.25,38.59-96.79c2.93,0.4,6.03,1.19,9.33,2.4 c38.01,13.93,49.91,52.15,53.65,74.26C2097.26,2631.09,2092.56,2641.22,2083.72,2646.4z" fill="#ede7ce"/></g><g id="change2_44"><path d="M2059.48,2657.33c-18.87,6.03-34.69,5.37-45.49,3.39c-10.06-1.84-17.9-9.59-20-19.59 c-7.83-37.32-1.06-102.25,38.59-96.79c0,0-24.16,13.73-19.35,48.94C2018.05,2628.49,2030.44,2653.3,2059.48,2657.33z" fill="#020202" opacity=".1"/></g><g id="change4_5"><ellipse cx="1772.8" cy="800.16" fill="#fff" opacity=".3" rx="103.53" ry="51.89" transform="rotate(-45.001 1772.797 800.185)"/></g><g id="change4_6"><ellipse cx="2776.64" cy="2955.18" fill="#fff" opacity=".3" rx="143.8" ry="74.64" transform="rotate(-57.933 2776.628 2955.232)"/></g><g id="change2_45"><path d="M2308.96,3666.96c-127.13,43.74-263.04,67.42-404.3,67.42c-709.21,0-1284.13-596.85-1284.13-1333.12 c0-107.38,12.23-211.79,35.33-311.82l384.03,311.82l255.48-196.88C1295.37,2204.37,1127.15,3432.72,2308.96,3666.96z" fill="#020202" opacity=".1"/></g><g id="change2_46"><ellipse cx="1288.05" cy="3183.4" fill="#020202" opacity=".2" rx="73.34" ry="123.61" transform="rotate(-19.126 1288.342 3183.54)"/></g><g id="change2_47"><ellipse cx="865.31" cy="2692.45" fill="#020202" opacity=".2" rx="73.34" ry="123.61" transform="rotate(-10.978 865.03 2692.05)"/></g><g id="change2_48"><ellipse cx="1217.83" cy="2836.91" fill="#020202" opacity=".2" rx="74.61" ry="116.03" transform="rotate(-19.126 1218.1 2837.027)"/></g><g id="change2_49"><ellipse cx="1263.54" cy="3424.18" fill="#020202" opacity=".2" rx="24.64" ry="41.99" transform="rotate(-35.755 1263.565 3424.268)"/></g><g id="change2_50"><ellipse cx="999.94" cy="2986.8" fill="#020202" opacity=".2" rx="24.64" ry="41.99" transform="rotate(-35.755 999.956 2986.882)"/></g></g></g></svg>