<?xml version="1.0" encoding="UTF-8"?><svg xmlns="http://www.w3.org/2000/svg" xmlns:xlink="http://www.w3.org/1999/xlink" height="2667.9" preserveAspectRatio="xMidYMid meet" version="1.0" viewBox="379.3 638.7 3196.7 2667.9" width="3196.7" zoomAndPan="magnify"><g><g><g id="change1_1"><path d="M2068.13,3084.69c0,0,554.06-407.71,266.65-1426.84s-702.6-906.7-702.6-906.7s-528.6,238.96-165.98,1386.64 l326.96,0.59l-276.94,153.06C1516.23,2291.44,1628.28,2920.41,2068.13,3084.69z" fill="#48a032"/></g><g id="change2_1"><path d="M2047.14,3010.15c-7.06,29.61-14.73,54.73-21.79,75.03c-13.81,39.71-25.27,60.9-25.27,60.9 c-4.06,0.31-8.11,0.55-12.15,0.76c-14.27,0.73-28.45,0.9-42.53,0.55c-410.32-10.06-726.12-463.08-726.12-463.08l121.52-168.07 l51.6-71.34l-126.59,58.49l-149.73,69.17c-27.42-30.2-53.39-59.86-78-88.93c-658.77-779.11-332.07-1161.51-332.07-1161.51 s305.99-258.87,953.06,499.69c41.71,48.89,79.44,96.97,113.55,144.15C2113.08,2436.72,2093,2817.81,2047.14,3010.15z" fill="#5fdd4a"/></g><g id="change3_1"><path d="M2047.14,3010.15c-7.06,29.61-14.73,54.73-21.79,75.03c-13.81,39.71-25.27,60.9-25.27,60.9 c-4.06,0.31-8.11,0.55-12.15,0.76c-338.43-609.06-275.09-1008.3-215.31-1180.88C2113.08,2436.72,2093,2817.81,2047.14,3010.15z" fill="#020202" opacity=".15"/></g><g id="change2_2"><path d="M2838.93,2288.47l-322.85-51.75l248.86,195.42c0,0-3.84,10.93-11.59,30.1 c-46.58,114.99-234.62,526.03-584.15,644.23c-24.54,8.29-49.86,15.15-76,20.35c0,0-24.5-24.97-57.31-74.66 c-4.76-7.22-9.69-14.94-14.76-23.19c-114.76-187.03-294.21-641.16,37.24-1353.27c446.83-959.99,838.67-782.55,838.67-782.55 S3380.58,1213.63,2838.93,2288.47z" fill="#5fdd4a"/></g><g id="change4_1"><path d="M2736.27,1258.03c0,0-498.79,902.03-567.06,1848.44c-24.54,8.29-49.86,15.15-76,20.35 c0,0-24.5-24.97-57.31-74.66C2101.38,2641.48,2302.95,1623.86,2736.27,1258.03z" fill="#48af2f"/></g><g id="change1_2"><path d="M2025.36,3085.18c-13.81,39.71-25.27,60.9-25.27,60.9c-18.41,1.35-36.63,1.76-54.68,1.31 c-186.88-475.06-870.26-1452.94-870.26-1452.94C1709.78,2202.82,2025.36,3085.18,2025.36,3085.18z" fill="#48a032"/></g><g id="change3_2"><path d="M2753.36,2462.24c-46.58,114.99-234.62,526.03-584.15,644.23c-24.54,8.29-49.86,15.15-76,20.35 c0,0-24.5-24.97-57.31-74.66c-4.76-7.22-9.69-14.94-14.76-23.19C2083.97,2836.54,2260.22,2540.13,2753.36,2462.24z" fill="#020202" opacity=".15"/></g><g id="change2_3"><path d="M2784.74,3219.84l-76.64-226.32l-36.66,237.15c0,0-508.31,75.97-658.65-110.53 c-11.44-14.21-20.82-29.94-27.73-47.35c0,0,11.73-22.14,37.15-57.22c90.49-124.82,354.32-413.5,880.14-452.34 C3576,2513.46,3523.16,3011.93,2784.74,3219.84z" fill="#5fdd4a"/></g><g id="change1_3"><path d="M3199.26,2760.45c0,0-824.67,102.22-1186.43,359.71l-0.03-0.02c-11.44-14.21-20.82-29.94-27.73-47.35 c0,0,11.73-22.14,37.15-57.22C2105.71,2970.3,2671.79,2677.44,3199.26,2760.45z" fill="#48a032"/></g><g id="change3_3"><path d="M1265.81,2503.39l-149.73,69.17c-27.42-30.2-53.39-59.86-78-88.93 C1120.13,2486.19,1195.88,2493,1265.81,2503.39z" fill="#020202" opacity=".15"/></g><g id="change3_4"><path d="M2047.14,3010.15c-7.06,29.61-14.73,54.73-21.79,75.03c-13.81,39.71-25.27,60.9-25.27,60.9 c-18.41,1.35-36.63,1.76-54.68,1.31c-410.32-10.06-726.12-463.08-726.12-463.08l121.52-168.07 C1780.82,2602.57,1967.88,2836.6,2047.14,3010.15z" fill="#020202" opacity=".15"/></g><g id="change2_4"><path d="M1259.33,3233.8l71.44-228.01l42.07,236.25c0,0,509.92,64.31,655.95-125.57 c11.12-14.47,20.13-30.41,26.64-47.97c0,0-12.23-21.87-38.45-56.36c-93.32-122.72-363.69-405.28-890.26-432.09 C452.12,2545.71,516.35,3042.84,1259.33,3233.8z" fill="#5fdd4a"/></g><g id="change1_4"><path d="M834.41,2784.02c0,0,826.8,83.32,1194.35,332.47l0.03-0.02c11.12-14.47,20.13-30.41,26.64-47.97 c0,0-12.23-21.87-38.45-56.36C1932.48,2968.79,1359.84,2688.96,834.41,2784.02z" fill="#48a032"/></g></g></g></svg>