<?xml version="1.0" encoding="UTF-8" standalone="no"?><svg xmlns="http://www.w3.org/2000/svg" xmlns:xlink="http://www.w3.org/1999/xlink" fill="#000000" height="1314.9" preserveAspectRatio="xMidYMid meet" version="1" viewBox="345.1 355.5 1321.1 1314.9" width="1321.1" zoomAndPan="magnify"><g><g id="change1_1"><path d="M 867.675781 592.980469 C 1085.789062 449.121094 1308.488281 414.710938 1418.78125 525 C 1561.53125 667.75 1461.871094 998.871094 1196.160156 1264.570312 C 930.464844 1530.269531 599.34375 1629.941406 456.589844 1487.191406 C 453.441406 1484.039062 450.414062 1480.789062 447.5 1477.460938 C 456.351562 1491.800781 466.753906 1505.03125 478.746094 1517.03125 C 632.164062 1670.441406 988.015625 1563.328125 1273.558594 1277.789062 C 1559.109375 992.238281 1666.21875 636.390625 1512.800781 482.96875 C 1385.351562 355.519531 1118.179688 407.878906 867.675781 592.980469" fill="#f6ba24"/></g><g id="change2_1"><path d="M 1035.328125 1362.539062 C 846.796875 1486.890625 654.296875 1516.628906 558.972656 1421.300781 C 435.582031 1297.910156 521.730469 1011.699219 751.390625 782.039062 C 981.054688 552.378906 1267.261719 466.230469 1390.648438 589.621094 C 1393.378906 592.339844 1395.988281 595.148438 1398.511719 598.03125 C 1390.859375 585.628906 1381.871094 574.199219 1371.5 563.828125 C 1238.890625 431.21875 931.308594 523.800781 684.492188 770.621094 C 437.675781 1017.441406 345.09375 1325.019531 477.699219 1457.628906 C 587.867188 1567.800781 818.800781 1522.53125 1035.328125 1362.539062" fill="#b1d325"/></g></g></svg>