<?xml version="1.0" encoding="UTF-8"?><svg xmlns="http://www.w3.org/2000/svg" xmlns:xlink="http://www.w3.org/1999/xlink" data-name="Layer 1" height="137.7" preserveAspectRatio="xMidYMid meet" version="1.0" viewBox="0.7 28.7 197.8 137.7" width="197.8" zoomAndPan="magnify"><g id="change1_1"><path d="M7.76,121.8c-3.79,3,1.56,9,3.67,11.86,7.4,9.9,15,17,26.92,20.87,8.22,2.71,16.3,3.27,24.72,4.91,4.63.9,8.83,3.1,13.5,3.87,19,3.1,51.14.82,68.66-5.45,9.78-3.5,18.35-5.63,26.65-12.34,10.9-8.81,26.69-22,26.22-37.77-.31-10.34-13-8.74-19.42-5.39-21.54,11.19-36.45,27.43-61.9,31.14-25.1,3.65-49.72,2.08-73.51-6.79-8-3-24.79-14.11-33-6.46" fill="#5d6000"/></g><g id="change2_1"><path d="M69.3,69.58a2,2,0,0,0-.42-.23c-1.34-.57-2.76-1-4.14-1.47l-.6-.2c-3.5-1.17-7.76-2.57-11.49-2.25s-.55,4.13-1.47,4.45c-1.79.62-4.86-.17-6.73-.17a33.15,33.15,0,0,0-16.78,4.62c-4.29,2.72,1.2,3,.79,3.6-2,2.91-14.78,7.61-19.15,12.09-2.32,2.38-2.62,4.2.81,4.26.36,0,1,.07.79.58-1.7,5.29-7.39,9-9,14.74C.74,113.87,5,111.43,6,114c2.11,5.55-1.87,7.7,3.88,13.66a11,11,0,0,0,1.74,1.52c2.12,1.43.81-2.87,2.83-2.2,5,1.68,8.91,6.33,14,8,1,.35,2.68.84,3.78.42.59-.21.09-2.11.61-1.76,4.27,2.81,7.92,9.22,13.25,10.19,2.39.44,3.41-3.47,6-2.61,6.19,2.07,11.16,6.72,18.16,5.91,3.24-.38.78-3.72,2.54-4.12,3.5-.81,8.82,3.12,12.82,3,2.11-.06,4.76-.19,6.64-1.25.89-.49.56-2.81,1.56-2.61,3.7.72,6.52,3.91,10.65,4.11,3.65.17,7-2.36,10.51-2,1.45.13,1.34,2.19,2.9,2,3.19-.32,4.13-5.27,6.53-5.76.26,0,0,.77,0,.85-.24,1.24-.34,2.52,1.36,2.35,4-.39,8.71-5.38,12.61-4.62,1.64.32-2.52,5.24,1.58,5.11,7.28-.22,14.75-8.54,20.72-12.08,2.86-1.7,5.32.47,7.71-1,1.95-1.21,3.31-5.76,5-6.41.55-.2,1.18,5,4.06,3.21,3.41-2.16,1.57-6.69,3.53-8.68.92-.94,4,2.13,5.81-1,2.06-3.6.3-8.79,2.34-12.09,1.39-2.23,8.16,1.4,8.25.3.27-3.37-4-6.65-3.89-10.2.09-2.92,4.36-.71,4.37-1.72,0-3.35-5.13-5.41-6.41-8.12-.7-1.51,4.3-.43,3.62-2.35-1.69-4.76-9.4-4.37-12-7.71-.71-.9,2.84.18,3.35-.86s-2.16-2.3-2.73-2.6c-6.22-3.22-12.67.25-16.39-1.05-.93-.32,2.23-3.76-.75-3.86-4.41-.15-9.07,2.39-13.34,3.24-8.17,1.63-16.47,2.89-24.52,5-7.11,1.9-13.65,5.19-21.06,5.87C96.33,83.17,79.48,74,69.3,69.58Z" fill="#6d7100"/></g><g id="change3_1"><ellipse cx="96.84" cy="74.3" fill="#f1f3b0" rx="26.63" ry="41.2" transform="rotate(-11.09 96.817 74.28)"/></g><g id="change4_1"><ellipse cx="129.92" cy="93.84" fill="#fdffbd" rx="39.29" ry="25.03" transform="rotate(-79.24 129.914 93.84)"/></g><g id="change4_2"><ellipse cx="70.49" cy="108.34" fill="#fdffbd" rx="27.05" ry="34.57" transform="rotate(-43.97 70.481 108.336)"/></g></svg>