<?xml version="1.0" encoding="UTF-8" standalone="no"?><svg xmlns="http://www.w3.org/2000/svg" xmlns:xlink="http://www.w3.org/1999/xlink" fill="#000000" height="539.9" preserveAspectRatio="xMidYMid meet" version="1" viewBox="-0.8 0.0 1674.4 539.9" width="1674.4" zoomAndPan="magnify"><defs><clipPath id="a"><path d="M 1197 512 L 1219 512 L 1219 539.941406 L 1197 539.941406 Z M 1197 512"/></clipPath><clipPath id="b"><path d="M 1643 254 L 1673.648438 254 L 1673.648438 285 L 1643 285 Z M 1643 254"/></clipPath></defs><g><g id="change1_1"><path d="M 62.230469 228.832031 C 74.507812 221.78125 91.070312 218.339844 101.640625 219.835938 C 103.117188 220.042969 108.464844 220.914062 115.621094 220.648438 C 118.351562 220.546875 121.339844 220.4375 125.144531 219.632812 C 127.082031 219.226562 128.59375 218.769531 129.84375 218.316406 C 134.464844 216.636719 138.011719 215.582031 138.730469 215.316406 C 144.539062 213.175781 152.386719 210.28125 160.9375 211.074219 C 167.238281 211.65625 166.371094 213.539062 174.324219 214.503906 C 182.632812 215.515625 185.082031 213.644531 189.15625 215.988281 C 193.226562 218.328125 195.714844 223.035156 196.09375 227.570312 C 196.566406 233.195312 193.796875 238.621094 189.757812 241.394531 C 185.609375 244.246094 182.933594 242.359375 172.121094 244.296875 C 165.945312 245.398438 166.910156 246 160.441406 247.289062 C 150.347656 249.304688 148.527344 247.738281 138.269531 249.613281 C 131.449219 250.863281 126.429688 252.683594 124.179688 253.460938 C 117.535156 255.746094 112.480469 258.714844 109.195312 260.910156 C 124.578125 265.566406 136.238281 270.488281 144.136719 274.179688 C 151.15625 277.457031 153.394531 278.921875 159.269531 280.835938 C 167.46875 283.503906 171.15625 283.273438 186.152344 287.144531 C 193.570312 289.0625 195.671875 289.894531 197.773438 290.96875 C 202.289062 293.273438 202.820312 294.671875 210.535156 300.144531 C 218.398438 305.722656 219.480469 305.429688 220.550781 307.6875 C 223.296875 313.46875 219.734375 322.859375 213.28125 327.003906 C 207.371094 330.796875 200.214844 329.425781 196.113281 328.640625 C 190.128906 327.492188 188.640625 325.421875 181.863281 324.496094 C 177.132812 323.851562 174.246094 324.367188 170.84375 324.578125 C 156.359375 325.464844 153.574219 319.496094 135.394531 318.273438 C 128.078125 317.78125 128.640625 318.753906 118.25 318.285156 C 108.835938 317.863281 101.15625 316.742188 96.042969 315.835938 C 105.027344 327.246094 113.46875 335.003906 119.625 340.042969 C 125.585938 344.921875 127.246094 345.480469 132.917969 350.671875 C 141.746094 358.753906 142.082031 361.394531 151.867188 370.441406 C 157.761719 375.894531 160.910156 378.804688 166.164062 382.019531 C 171.871094 385.515625 173.871094 385.578125 177.636719 389.03125 C 179.523438 390.761719 184.289062 395.25 186.121094 402.742188 C 186.789062 405.460938 188.074219 410.714844 185.546875 416.472656 C 185.289062 417.058594 181.757812 424.785156 173.851562 426.855469 C 168.332031 428.304688 163.816406 426.164062 156.53125 422.574219 C 143.296875 416.054688 134.421875 406.898438 133.566406 406 C 126.503906 398.597656 125.511719 394.648438 119.460938 392.699219 C 116.21875 391.65625 113.191406 391.722656 109.066406 389.089844 C 105.941406 387.09375 104.960938 385.316406 102.519531 382.914062 C 98.160156 378.621094 94.058594 377.15625 88.808594 374.746094 C 83.476562 372.296875 75.796875 368.34375 65.90625 361.816406 C 68.847656 366.777344 73.960938 375.804688 77.855469 385.355469 C 79.21875 388.695312 78.105469 391.179688 79.609375 395.097656 C 82.535156 402.703125 86.953125 403.191406 90.117188 410.109375 C 91.128906 412.316406 94.453125 419.574219 91.070312 426.304688 C 88.335938 431.734375 81.988281 435.316406 75.761719 434.792969 C 68.074219 434.148438 63.890625 427.527344 62.113281 424.714844 C 59.636719 420.789062 60.410156 419.535156 58.296875 414.152344 C 54.269531 403.886719 50.234375 405.355469 44.050781 393.449219 C 42.605469 390.667969 39.089844 383.519531 36.246094 378.671875 C 35.511719 377.417969 34.640625 376.070312 33.453125 374.414062 C 28.242188 367.148438 26.957031 367.851562 22.03125 360.789062 C 16.894531 353.433594 18.003906 352.257812 11.917969 341.742188 C 5.167969 330.074219 2.5 329.273438 0.828125 322.71875 C -0.75 316.539062 0.179688 311.59375 1.527344 304.820312 C 5.835938 283.160156 17.949219 268.929688 20.230469 266.3125 C 23.246094 262.851562 22.367188 264.445312 38.367188 250.105469 C 59.222656 231.410156 57.628906 231.472656 62.230469 228.832031" fill="#d9af98"/></g><g id="change1_2"><path d="M 196.902344 214.824219 C 199.804688 215.917969 202.222656 216.582031 203.910156 216.988281 C 206.734375 217.664062 207.800781 217.691406 210.085938 218.535156 C 212.285156 219.347656 212.921875 219.921875 215.15625 220.988281 C 216.851562 221.796875 219.378906 222.847656 222.71875 223.671875 C 220.332031 226.453125 218.015625 227.914062 216.320312 228.734375 C 214.660156 229.539062 213.914062 229.582031 211.90625 230.636719 C 209.6875 231.804688 208.496094 232.859375 206.53125 234.417969 C 201.671875 238.261719 198.925781 240.4375 198.195312 239.878906 C 197.144531 239.082031 201.902344 233.949219 201.976562 227.179688 C 202.035156 221.804688 199.117188 217.460938 196.902344 214.824219" fill="#d9af98"/></g><g id="change1_3"><path d="M 224.992188 306.152344 C 232.191406 308.96875 235.886719 312.253906 237.9375 314.851562 C 238.539062 315.609375 239.609375 317.089844 241.496094 318.769531 C 244.195312 321.175781 246.929688 322.554688 248.871094 323.355469 C 246.285156 325.15625 244.015625 325.9375 242.382812 326.3125 C 241.308594 326.558594 241.261719 326.457031 238.027344 326.96875 C 235.003906 327.441406 233.492188 327.679688 232.011719 328.117188 C 229.535156 328.851562 228.691406 329.59375 226.902344 330.371094 C 224.855469 331.265625 221.734375 332.148438 217.222656 331.828125 C 218.855469 330.5 223.136719 326.660156 225.097656 320 C 226.992188 313.554688 225.621094 308.179688 224.992188 306.152344" fill="#d9af98"/></g><g id="change1_4"><path d="M 194.082031 405.117188 C 196.214844 410.539062 198.699219 414.230469 200.617188 416.632812 C 202.808594 419.382812 204.476562 420.714844 205.574219 423.933594 C 206.3125 426.09375 206.273438 427.585938 207.488281 430.085938 C 208.484375 432.125 209.71875 433.605469 210.640625 434.5625 C 206.335938 433.226562 202.886719 433.035156 200.519531 433.113281 C 197.484375 433.210938 196.074219 433.75 193.113281 433.234375 C 190.183594 432.726562 189.417969 431.824219 186.585938 431 C 184.554688 430.40625 181.5625 429.886719 177.578125 430.375 C 179.226562 429.796875 188.945312 426.203125 192.777344 416.207031 C 194.511719 411.679688 194.378906 407.566406 194.082031 405.117188" fill="#d9af98"/></g><g id="change1_5"><path d="M 96.273438 427.996094 C 98.789062 433.558594 98.792969 437.214844 98.269531 439.578125 C 98.054688 440.546875 97.578125 442.070312 97.503906 444.398438 C 97.429688 446.671875 97.808594 447.554688 97.820312 449.796875 C 97.828125 451.082031 97.714844 452.96875 97.113281 455.289062 C 95.390625 452.84375 93.597656 451.574219 92.289062 450.875 C 90.117188 449.707031 89.277344 450.09375 86.582031 448.730469 C 84.125 447.492188 82.515625 446.003906 81.515625 445.070312 C 79.707031 443.378906 78.417969 441.664062 77.519531 440.257812 C 79.984375 439.675781 83.441406 438.558594 87.125 436.304688 C 91.667969 433.527344 94.597656 430.21875 96.273438 427.996094" fill="#d9af98"/></g><g id="change1_6"><path d="M 320.625 87.382812 C 327.488281 75.003906 339.886719 63.496094 349.707031 59.3125 C 351.082031 58.726562 356.105469 56.707031 362.097656 52.777344 C 364.382812 51.28125 366.882812 49.644531 369.722656 46.988281 C 371.171875 45.636719 372.230469 44.46875 373.066406 43.429688 C 376.152344 39.605469 378.644531 36.867188 379.121094 36.265625 C 382.988281 31.433594 388.210938 24.902344 395.9375 21.15625 C 401.632812 18.398438 401.863281 20.457031 409.175781 17.171875 C 416.804688 13.742188 417.9375 10.878906 422.632812 10.777344 C 427.328125 10.675781 431.894531 13.417969 434.5625 17.101562 C 437.871094 21.675781 438.304688 27.753906 436.285156 32.214844 C 434.207031 36.796875 430.941406 36.570312 422.6875 43.8125 C 417.96875 47.953125 419.105469 47.964844 414.238281 52.414062 C 406.636719 59.355469 404.269531 58.957031 396.460938 65.867188 C 391.265625 70.464844 387.910156 74.613281 386.386719 76.441406 C 381.878906 81.835938 379.089844 86.988281 377.410156 90.566406 C 392.988281 86.601562 405.507812 84.785156 414.179688 83.859375 C 421.882812 83.039062 424.558594 83.132812 430.574219 81.734375 C 438.972656 79.78125 442.011719 77.679688 456.847656 73.242188 C 464.1875 71.046875 466.417969 70.671875 468.773438 70.503906 C 473.828125 70.148438 475.007812 71.066406 484.4375 71.761719 C 494.054688 72.472656 494.828125 71.664062 496.914062 73.039062 C 502.253906 76.570312 504.058594 86.453125 500.675781 93.332031 C 497.578125 99.636719 490.742188 102.164062 486.824219 103.609375 C 481.109375 105.722656 478.765625 104.71875 472.484375 107.433594 C 468.105469 109.324219 465.898438 111.257812 463.09375 113.195312 C 451.152344 121.445312 445.6875 117.773438 429.488281 126.125 C 422.972656 129.484375 423.957031 130.027344 414.820312 135 C 406.542969 139.507812 399.390625 142.515625 394.546875 144.382812 C 408.132812 149.503906 419.371094 151.78125 427.246094 152.914062 C 434.871094 154.007812 436.582031 153.628906 444.117188 155.140625 C 455.855469 157.496094 457.503906 159.578125 470.558594 162.269531 C 478.421875 163.886719 482.621094 164.75 488.785156 164.789062 C 495.476562 164.828125 497.222656 163.847656 502.230469 164.855469 C 504.738281 165.363281 511.140625 166.742188 516.578125 172.207031 C 518.554688 174.191406 522.371094 178.023438 523.1875 184.257812 C 523.269531 184.894531 524.238281 193.335938 518.542969 199.195312 C 514.566406 203.285156 509.597656 203.789062 501.503906 204.480469 C 486.804688 205.742188 474.472656 202.492188 473.273438 202.167969 C 463.402344 199.480469 460.515625 196.613281 454.324219 198.074219 C 451.011719 198.855469 448.457031 200.476562 443.5625 200.355469 C 439.851562 200.261719 438.09375 199.25 434.765625 198.453125 C 428.816406 197.035156 424.546875 197.898438 418.804688 198.550781 C 412.976562 199.210938 404.355469 199.796875 392.515625 199.320312 C 397.597656 202.046875 406.640625 207.132812 414.914062 213.292969 C 417.808594 215.449219 418.136719 218.152344 421.453125 220.726562 C 427.890625 225.726562 431.921875 223.859375 438.207031 228.144531 C 440.214844 229.511719 446.8125 234.007812 447.394531 241.515625 C 447.859375 247.574219 444.277344 253.925781 438.679688 256.695312 C 431.765625 260.121094 424.761719 256.613281 421.789062 255.125 C 417.636719 253.046875 417.648438 251.570312 413.058594 248.054688 C 404.304688 241.347656 401.609375 244.691406 390.160156 237.699219 C 387.484375 236.0625 380.78125 231.761719 375.839844 229.082031 C 374.5625 228.390625 373.121094 227.6875 371.246094 226.882812 C 363.03125 223.355469 362.296875 224.621094 354.429688 221.125 C 346.230469 217.480469 346.570312 215.902344 335.925781 210.046875 C 324.113281 203.550781 321.417969 204.242188 316.597656 199.496094 C 312.054688 195.023438 310.289062 190.308594 307.941406 183.816406 C 300.4375 163.042969 303.445312 144.601562 304.046875 141.179688 C 304.839844 136.660156 304.910156 138.476562 311.191406 117.933594 C 319.382812 91.144531 318.050781 92.027344 320.625 87.382812" fill="#d9af98"/></g><g id="change1_7"><path d="M 428.660156 5.777344 C 431.714844 5.214844 434.128906 4.53125 435.78125 4.003906 C 438.550781 3.125 439.476562 2.597656 441.867188 2.136719 C 444.167969 1.695312 445.011719 1.859375 447.476562 1.617188 C 449.34375 1.433594 452.050781 1.023438 455.335938 0.00390625 C 454.730469 3.617188 453.503906 6.066406 452.480469 7.644531 C 451.472656 9.191406 450.855469 9.613281 449.679688 11.558594 C 448.386719 13.699219 447.914062 15.21875 447.035156 17.570312 C 444.863281 23.375 443.636719 26.652344 442.722656 26.554688 C 441.410156 26.414062 442.832031 19.558594 439.394531 13.726562 C 436.667969 9.097656 431.921875 6.886719 428.660156 5.777344" fill="#d9af98"/></g><g id="change1_8"><path d="M 499.921875 69.429688 C 507.539062 68.121094 512.398438 69.023438 515.5 70.1875 C 516.40625 70.527344 518.089844 71.234375 520.574219 71.703125 C 524.125 72.367188 527.179688 72.132812 529.253906 71.816406 C 527.972656 74.695312 526.433594 76.535156 525.230469 77.699219 C 524.4375 78.464844 524.347656 78.402344 521.839844 80.511719 C 519.496094 82.480469 518.328125 83.464844 517.285156 84.609375 C 515.546875 86.515625 515.203125 87.585938 514.078125 89.175781 C 512.789062 91 510.570312 93.371094 506.542969 95.429688 C 507.253906 93.445312 508.933594 87.945312 507.167969 81.230469 C 505.460938 74.738281 501.511719 70.84375 499.921875 69.429688" fill="#d9af98"/></g><g id="change1_9"><path d="M 524.621094 170.128906 C 529.25 173.664062 533.285156 175.542969 536.167969 176.605469 C 539.464844 177.824219 541.585938 178.105469 544.1875 180.292969 C 545.933594 181.761719 546.675781 183.058594 549.007812 184.566406 C 550.914062 185.800781 552.734375 186.429688 554.015625 186.773438 C 549.640625 187.855469 546.589844 189.476562 544.605469 190.761719 C 542.058594 192.414062 541.128906 193.609375 538.328125 194.699219 C 535.554688 195.777344 534.4375 195.398438 531.585938 196.15625 C 529.539062 196.699219 526.707031 197.800781 523.554688 200.277344 C 524.660156 198.933594 531.125 190.832031 529.238281 180.292969 C 528.382812 175.519531 526.144531 172.070312 524.621094 170.128906" fill="#d9af98"/></g><g id="change1_10"><path d="M 452.722656 240.273438 C 457.753906 243.734375 459.644531 246.863281 460.417969 249.15625 C 460.734375 250.097656 461.117188 251.644531 462.253906 253.675781 C 463.367188 255.664062 464.148438 256.222656 465.316406 258.132812 C 465.988281 259.230469 466.867188 260.902344 467.550781 263.203125 C 464.8125 262 462.621094 261.84375 461.140625 261.917969 C 458.675781 262.042969 458.15625 262.804688 455.148438 263.03125 C 452.402344 263.242188 450.253906 262.800781 448.914062 262.519531 C 446.492188 262.003906 444.503906 261.207031 443.011719 260.464844 C 444.816406 258.691406 447.199219 255.949219 449.1875 252.113281 C 451.640625 247.390625 452.4375 243.042969 452.722656 240.273438" fill="#d9af98"/></g><g id="change1_11"><path d="M 620.183594 263.4375 C 632.464844 256.390625 649.023438 252.945312 659.59375 254.441406 C 661.074219 254.648438 666.417969 255.519531 673.578125 255.253906 C 676.308594 255.152344 679.292969 255.042969 683.097656 254.238281 C 685.039062 253.832031 686.546875 253.378906 687.800781 252.921875 C 692.417969 251.242188 695.964844 250.1875 696.6875 249.921875 C 702.492188 247.78125 710.339844 244.886719 718.894531 245.679688 C 725.191406 246.261719 724.324219 248.144531 732.28125 249.109375 C 740.585938 250.121094 743.035156 248.253906 747.109375 250.59375 C 751.179688 252.9375 753.671875 257.640625 754.050781 262.175781 C 754.519531 267.800781 751.75 273.230469 747.714844 276 C 743.5625 278.851562 740.886719 276.96875 730.078125 278.902344 C 723.898438 280.007812 724.867188 280.605469 718.398438 281.894531 C 708.304688 283.910156 706.484375 282.34375 696.226562 284.222656 C 689.402344 285.472656 684.386719 287.289062 682.136719 288.0625 C 675.488281 290.355469 670.4375 293.320312 667.152344 295.519531 C 682.535156 300.175781 694.191406 305.09375 702.09375 308.785156 C 709.113281 312.0625 711.351562 313.527344 717.226562 315.441406 C 725.425781 318.109375 729.109375 317.882812 744.105469 321.753906 C 751.523438 323.667969 753.628906 324.5 755.730469 325.574219 C 760.242188 327.882812 760.777344 329.277344 768.488281 334.75 C 776.351562 340.328125 777.4375 340.035156 778.507812 342.292969 C 781.253906 348.074219 777.6875 357.46875 771.238281 361.609375 C 765.328125 365.402344 758.167969 364.03125 754.066406 363.246094 C 748.082031 362.097656 746.597656 360.027344 739.816406 359.105469 C 735.089844 358.460938 732.199219 358.976562 728.800781 359.183594 C 714.3125 360.070312 711.53125 354.105469 693.347656 352.878906 C 686.035156 352.386719 686.597656 353.359375 676.203125 352.894531 C 666.789062 352.472656 659.113281 351.347656 653.996094 350.441406 C 662.980469 361.851562 671.425781 369.609375 677.578125 374.648438 C 683.539062 379.527344 685.203125 380.085938 690.871094 385.277344 C 699.699219 393.359375 700.035156 396 709.820312 405.046875 C 715.714844 410.5 718.863281 413.410156 724.121094 416.628906 C 729.828125 420.121094 731.828125 420.183594 735.59375 423.636719 C 737.480469 425.367188 742.246094 429.855469 744.078125 437.347656 C 744.742188 440.066406 746.027344 445.320312 743.503906 451.078125 C 743.246094 451.664062 739.710938 459.394531 731.808594 461.464844 C 726.285156 462.910156 721.773438 460.769531 714.488281 457.179688 C 701.253906 450.660156 692.375 441.503906 691.519531 440.605469 C 684.457031 433.203125 683.46875 429.257812 677.414062 427.308594 C 674.175781 426.265625 671.148438 426.328125 667.023438 423.695312 C 663.894531 421.699219 662.914062 419.921875 660.472656 417.519531 C 656.117188 413.230469 652.015625 411.761719 646.761719 409.351562 C 641.433594 406.902344 633.75 402.949219 623.859375 396.421875 C 626.804688 401.382812 631.914062 410.410156 635.808594 419.960938 C 637.175781 423.300781 636.058594 425.785156 637.566406 429.703125 C 640.492188 437.308594 644.90625 437.796875 648.074219 444.714844 C 649.085938 446.921875 652.410156 454.183594 649.023438 460.910156 C 646.292969 466.339844 639.941406 469.921875 633.714844 469.398438 C 626.027344 468.757812 621.847656 462.136719 620.070312 459.324219 C 617.589844 455.394531 618.363281 454.140625 616.253906 448.757812 C 612.226562 438.492188 608.191406 439.960938 602.007812 428.054688 C 600.5625 425.273438 597.042969 418.125 594.199219 413.277344 C 593.464844 412.023438 592.59375 410.675781 591.40625 409.019531 C 586.199219 401.757812 584.910156 402.457031 579.984375 395.398438 C 574.851562 388.039062 575.957031 386.863281 569.871094 376.347656 C 563.121094 364.679688 560.453125 363.878906 558.78125 357.324219 C 557.207031 351.144531 558.132812 346.199219 559.480469 339.429688 C 563.792969 317.769531 575.902344 303.535156 578.183594 300.917969 C 581.199219 297.460938 580.320312 299.050781 596.320312 284.710938 C 617.179688 266.015625 615.582031 266.078125 620.183594 263.4375" fill="#d9af98"/></g><g id="change1_12"><path d="M 754.855469 249.429688 C 757.757812 250.523438 760.179688 251.1875 761.867188 251.59375 C 764.6875 252.269531 765.757812 252.296875 768.039062 253.140625 C 770.238281 253.953125 770.875 254.527344 773.113281 255.597656 C 774.804688 256.402344 777.332031 257.453125 780.671875 258.277344 C 778.289062 261.058594 775.972656 262.519531 774.277344 263.34375 C 772.617188 264.148438 771.867188 264.1875 769.859375 265.242188 C 767.644531 266.410156 766.453125 267.46875 764.488281 269.023438 C 759.628906 272.871094 756.882812 275.042969 756.148438 274.484375 C 755.097656 273.6875 759.859375 268.554688 759.933594 261.785156 C 759.992188 256.410156 757.070312 252.066406 754.855469 249.429688" fill="#d9af98"/></g><g id="change1_13"><path d="M 782.949219 340.757812 C 790.148438 343.574219 793.839844 346.859375 795.890625 349.457031 C 796.492188 350.21875 797.566406 351.695312 799.453125 353.378906 C 802.148438 355.78125 804.886719 357.160156 806.824219 357.960938 C 804.238281 359.761719 801.96875 360.542969 800.339844 360.917969 C 799.265625 361.164062 799.21875 361.0625 795.980469 361.574219 C 792.960938 362.046875 791.449219 362.285156 789.964844 362.726562 C 787.492188 363.460938 786.644531 364.199219 784.859375 364.980469 C 782.8125 365.871094 779.6875 366.753906 775.175781 366.433594 C 776.808594 365.105469 781.09375 361.265625 783.050781 354.605469 C 784.945312 348.160156 783.578125 342.785156 782.949219 340.757812" fill="#d9af98"/></g><g id="change1_14"><path d="M 752.035156 439.722656 C 754.167969 445.144531 756.65625 448.839844 758.570312 451.238281 C 760.761719 453.988281 762.433594 455.320312 763.53125 458.539062 C 764.265625 460.699219 764.230469 462.195312 765.445312 464.6875 C 766.441406 466.730469 767.675781 468.210938 768.59375 469.167969 C 764.289062 467.832031 760.839844 467.640625 758.472656 467.71875 C 755.441406 467.816406 754.027344 468.355469 751.066406 467.84375 C 748.136719 467.332031 747.375 466.429688 744.542969 465.605469 C 742.507812 465.011719 739.515625 464.492188 735.535156 464.980469 C 737.179688 464.402344 746.902344 460.808594 750.734375 450.8125 C 752.46875 446.285156 752.335938 442.171875 752.035156 439.722656" fill="#d9af98"/></g><g id="change1_15"><path d="M 654.230469 462.601562 C 656.742188 468.164062 656.746094 471.820312 656.222656 474.183594 C 656.007812 475.152344 655.535156 476.675781 655.460938 479.003906 C 655.386719 481.277344 655.761719 482.160156 655.777344 484.402344 C 655.78125 485.6875 655.671875 487.574219 655.070312 489.894531 C 653.34375 487.449219 651.550781 486.183594 650.242188 485.480469 C 648.070312 484.3125 647.230469 484.699219 644.539062 483.335938 C 642.082031 482.097656 640.46875 480.609375 639.46875 479.675781 C 637.660156 477.984375 636.371094 476.269531 635.476562 474.863281 C 637.9375 474.28125 641.398438 473.164062 645.082031 470.910156 C 649.621094 468.132812 652.550781 464.824219 654.230469 462.601562" fill="#d9af98"/></g><g id="change1_16"><path d="M 878.578125 121.988281 C 885.445312 109.609375 897.84375 98.101562 907.664062 93.917969 C 909.035156 93.332031 914.0625 91.3125 920.054688 87.382812 C 922.339844 85.886719 924.835938 84.25 927.679688 81.59375 C 929.128906 80.242188 930.183594 79.074219 931.019531 78.035156 C 934.105469 74.210938 936.597656 71.472656 937.078125 70.871094 C 940.941406 66.039062 946.164062 59.507812 953.894531 55.761719 C 959.585938 53.003906 959.816406 55.0625 967.128906 51.777344 C 974.761719 48.347656 975.890625 45.484375 980.589844 45.382812 C 985.285156 45.28125 989.847656 48.023438 992.515625 51.710938 C 995.824219 56.28125 996.261719 62.359375 994.238281 66.820312 C 992.160156 71.402344 988.894531 71.175781 980.640625 78.417969 C 975.925781 82.558594 977.0625 82.570312 972.191406 87.019531 C 964.59375 93.960938 962.226562 93.5625 954.414062 100.472656 C 949.21875 105.070312 945.863281 109.21875 944.339844 111.046875 C 939.835938 116.441406 937.042969 121.59375 935.367188 125.171875 C 950.941406 121.207031 963.464844 119.390625 972.132812 118.464844 C 979.839844 117.644531 982.511719 117.738281 988.53125 116.339844 C 996.929688 114.386719 999.964844 112.285156 1014.800781 107.847656 C 1022.140625 105.652344 1024.371094 105.277344 1026.730469 105.109375 C 1031.78125 104.753906 1032.960938 105.671875 1042.390625 106.367188 C 1052.011719 107.078125 1052.789062 106.269531 1054.871094 107.644531 C 1060.210938 111.175781 1062.011719 121.058594 1058.628906 127.9375 C 1055.53125 134.242188 1048.699219 136.769531 1044.78125 138.214844 C 1039.058594 140.328125 1036.71875 139.324219 1030.441406 142.039062 C 1026.058594 143.929688 1023.851562 145.863281 1021.050781 147.800781 C 1009.109375 156.050781 1003.640625 152.382812 987.445312 160.730469 C 980.929688 164.089844 981.910156 164.632812 972.777344 169.605469 C 964.5 174.113281 957.347656 177.121094 952.5 178.988281 C 966.085938 184.109375 977.324219 186.390625 985.199219 187.519531 C 992.824219 188.613281 994.535156 188.234375 1002.070312 189.746094 C 1013.808594 192.101562 1015.460938 194.1875 1028.511719 196.875 C 1036.378906 198.492188 1040.578125 199.355469 1046.738281 199.394531 C 1053.429688 199.433594 1055.179688 198.453125 1060.179688 199.464844 C 1062.691406 199.96875 1069.101562 201.351562 1074.539062 206.8125 C 1076.511719 208.796875 1080.328125 212.628906 1081.140625 218.863281 C 1081.21875 219.5 1082.191406 227.941406 1076.5 233.800781 C 1072.519531 237.890625 1067.550781 238.394531 1059.460938 239.089844 C 1044.761719 240.347656 1032.429688 237.097656 1031.230469 236.773438 C 1021.359375 234.085938 1018.46875 231.21875 1012.28125 232.679688 C 1008.96875 233.464844 1006.410156 235.082031 1001.519531 234.960938 C 997.808594 234.867188 996.050781 233.855469 992.71875 233.0625 C 986.769531 231.640625 982.5 232.503906 976.761719 233.15625 C 970.933594 233.816406 962.3125 234.402344 950.472656 233.929688 C 955.554688 236.652344 964.597656 241.738281 972.867188 247.898438 C 975.761719 250.054688 976.09375 252.757812 979.410156 255.332031 C 985.84375 260.332031 989.875 258.464844 996.164062 262.75 C 998.171875 264.117188 1004.769531 268.613281 1005.351562 276.121094 C 1005.820312 282.183594 1002.230469 288.53125 996.632812 291.304688 C 989.71875 294.726562 982.71875 291.21875 979.742188 289.730469 C 975.589844 287.652344 975.605469 286.175781 971.015625 282.660156 C 962.261719 275.953125 959.566406 279.296875 948.117188 272.304688 C 945.441406 270.667969 938.734375 266.367188 933.796875 263.6875 C 932.519531 262.996094 931.074219 262.292969 929.203125 261.488281 C 920.988281 257.964844 920.25 259.230469 912.382812 255.730469 C 904.183594 252.085938 904.523438 250.507812 893.878906 244.652344 C 882.070312 238.15625 879.371094 238.847656 874.554688 234.101562 C 870.007812 229.628906 868.246094 224.914062 865.898438 218.421875 C 858.390625 197.648438 861.402344 179.207031 862.003906 175.785156 C 862.796875 171.265625 862.867188 173.085938 869.148438 152.539062 C 877.339844 125.75 876.003906 126.632812 878.578125 121.988281" fill="#d9af98"/></g><g id="change1_17"><path d="M 986.617188 40.382812 C 989.667969 39.820312 992.082031 39.136719 993.734375 38.609375 C 996.503906 37.730469 997.429688 37.203125 999.820312 36.742188 C 1002.121094 36.300781 1002.96875 36.464844 1005.429688 36.222656 C 1007.300781 36.039062 1010 35.628906 1013.289062 34.609375 C 1012.691406 38.222656 1011.460938 40.671875 1010.429688 42.25 C 1009.429688 43.796875 1008.808594 44.21875 1007.640625 46.164062 C 1006.339844 48.304688 1005.871094 49.828125 1004.988281 52.175781 C 1002.820312 57.980469 1001.589844 61.257812 1000.679688 61.160156 C 999.363281 61.019531 1000.789062 54.164062 997.351562 48.335938 C 994.621094 43.703125 989.878906 41.492188 986.617188 40.382812" fill="#d9af98"/></g><g id="change1_18"><path d="M 1057.878906 104.039062 C 1065.5 102.726562 1070.351562 103.628906 1073.449219 104.792969 C 1074.359375 105.132812 1076.039062 105.84375 1078.53125 106.308594 C 1082.078125 106.972656 1085.140625 106.738281 1087.210938 106.421875 C 1085.929688 109.300781 1084.390625 111.140625 1083.191406 112.304688 C 1082.390625 113.070312 1082.300781 113.007812 1079.789062 115.117188 C 1077.449219 117.085938 1076.28125 118.070312 1075.238281 119.214844 C 1073.5 121.121094 1073.160156 122.191406 1072.03125 123.78125 C 1070.738281 125.605469 1068.53125 127.976562 1064.5 130.035156 C 1065.210938 128.054688 1066.890625 122.554688 1065.121094 115.839844 C 1063.421875 109.34375 1059.460938 105.449219 1057.878906 104.039062" fill="#d9af98"/></g><g id="change1_19"><path d="M 1082.578125 204.734375 C 1087.199219 208.269531 1091.238281 210.148438 1094.121094 211.214844 C 1097.421875 212.433594 1099.539062 212.710938 1102.140625 214.898438 C 1103.890625 216.367188 1104.628906 217.664062 1106.960938 219.171875 C 1108.871094 220.40625 1110.691406 221.035156 1111.96875 221.378906 C 1107.601562 222.460938 1104.550781 224.082031 1102.558594 225.367188 C 1100.011719 227.019531 1099.078125 228.214844 1096.28125 229.304688 C 1093.511719 230.382812 1092.390625 230.003906 1089.539062 230.761719 C 1087.488281 231.308594 1084.660156 232.40625 1081.511719 234.882812 C 1082.621094 233.539062 1089.078125 225.4375 1087.191406 214.898438 C 1086.339844 210.128906 1084.101562 206.675781 1082.578125 204.734375" fill="#d9af98"/></g><g id="change1_20"><path d="M 1010.679688 274.878906 C 1015.710938 278.339844 1017.601562 281.472656 1018.371094 283.761719 C 1018.691406 284.703125 1019.070312 286.25 1020.210938 288.28125 C 1021.320312 290.269531 1022.101562 290.828125 1023.269531 292.738281 C 1023.941406 293.835938 1024.820312 295.511719 1025.511719 297.808594 C 1022.769531 296.605469 1020.578125 296.449219 1019.101562 296.523438 C 1016.628906 296.648438 1016.109375 297.410156 1013.101562 297.640625 C 1010.359375 297.847656 1008.210938 297.40625 1006.871094 297.125 C 1004.449219 296.609375 1002.460938 295.8125 1000.96875 295.070312 C 1002.769531 293.296875 1005.148438 290.554688 1007.140625 286.71875 C 1009.589844 281.996094 1010.390625 277.648438 1010.679688 274.878906" fill="#d9af98"/></g><g id="change1_21"><path d="M 1181.871094 313.484375 C 1194.140625 306.433594 1210.710938 302.992188 1221.28125 304.488281 C 1222.75 304.695312 1228.101562 305.566406 1235.261719 305.300781 C 1237.988281 305.199219 1240.980469 305.089844 1244.78125 304.285156 C 1246.71875 303.875 1248.230469 303.421875 1249.480469 302.96875 C 1254.101562 301.289062 1257.648438 300.234375 1258.371094 299.96875 C 1264.179688 297.828125 1272.019531 294.933594 1280.570312 295.726562 C 1286.871094 296.308594 1286.011719 298.1875 1293.960938 299.15625 C 1302.269531 300.167969 1304.71875 298.296875 1308.789062 300.640625 C 1312.859375 302.980469 1315.351562 307.6875 1315.730469 312.222656 C 1316.199219 317.84375 1313.429688 323.273438 1309.390625 326.046875 C 1305.25 328.894531 1302.570312 327.011719 1291.761719 328.945312 C 1285.578125 330.050781 1286.550781 330.652344 1280.078125 331.941406 C 1269.988281 333.953125 1268.171875 332.390625 1257.910156 334.265625 C 1251.078125 335.515625 1246.070312 337.335938 1243.820312 338.109375 C 1237.171875 340.398438 1232.121094 343.367188 1228.828125 345.5625 C 1244.21875 350.21875 1255.871094 355.140625 1263.769531 358.828125 C 1270.789062 362.109375 1273.03125 363.574219 1278.910156 365.484375 C 1287.109375 368.15625 1290.789062 367.925781 1305.789062 371.796875 C 1313.210938 373.714844 1315.308594 374.546875 1317.410156 375.621094 C 1321.929688 377.925781 1322.460938 379.324219 1330.171875 384.796875 C 1338.03125 390.371094 1339.121094 390.082031 1340.191406 392.335938 C 1342.929688 398.117188 1339.371094 407.511719 1332.921875 411.652344 C 1327.011719 415.449219 1319.851562 414.078125 1315.75 413.289062 C 1309.761719 412.144531 1308.28125 410.074219 1301.5 409.148438 C 1296.769531 408.503906 1293.878906 409.019531 1290.480469 409.226562 C 1275.988281 410.117188 1273.210938 404.148438 1255.03125 402.925781 C 1247.71875 402.429688 1248.28125 403.402344 1237.890625 402.9375 C 1228.46875 402.515625 1220.789062 401.394531 1215.679688 400.488281 C 1224.660156 411.894531 1233.109375 419.65625 1239.261719 424.695312 C 1245.21875 429.570312 1246.878906 430.132812 1252.550781 435.324219 C 1261.378906 443.40625 1261.71875 446.042969 1271.5 455.09375 C 1277.398438 460.542969 1280.550781 463.453125 1285.800781 466.671875 C 1291.511719 470.164062 1293.511719 470.230469 1297.28125 473.683594 C 1299.160156 475.410156 1303.929688 479.902344 1305.761719 487.390625 C 1306.429688 490.109375 1307.710938 495.367188 1305.179688 501.125 C 1304.929688 501.710938 1301.390625 509.4375 1293.488281 511.507812 C 1287.96875 512.953125 1283.460938 510.816406 1276.171875 507.226562 C 1262.929688 500.703125 1254.058594 491.550781 1253.199219 490.652344 C 1246.140625 483.25 1245.148438 479.300781 1239.101562 477.351562 C 1235.859375 476.308594 1232.828125 476.375 1228.699219 473.738281 C 1225.578125 471.742188 1224.601562 469.96875 1222.160156 467.566406 C 1217.800781 463.273438 1213.699219 461.808594 1208.449219 459.398438 C 1203.109375 456.949219 1195.429688 452.996094 1185.539062 446.46875 C 1188.480469 451.429688 1193.601562 460.457031 1197.488281 470.003906 C 1198.859375 473.347656 1197.738281 475.832031 1199.25 479.75 C 1202.171875 487.355469 1206.589844 487.84375 1209.761719 494.757812 C 1210.769531 496.96875 1214.089844 504.226562 1210.710938 510.953125 C 1207.96875 516.386719 1201.621094 519.96875 1195.398438 519.445312 C 1187.710938 518.800781 1183.53125 512.179688 1181.75 509.367188 C 1179.269531 505.441406 1180.050781 504.183594 1177.941406 498.804688 C 1173.910156 488.535156 1169.871094 490.007812 1163.691406 478.101562 C 1162.238281 475.320312 1158.730469 468.171875 1155.878906 463.320312 C 1155.148438 462.070312 1154.28125 460.722656 1153.089844 459.066406 C 1147.878906 451.800781 1146.589844 452.503906 1141.671875 445.441406 C 1136.53125 438.085938 1137.640625 436.90625 1131.558594 426.394531 C 1124.800781 414.726562 1122.140625 413.925781 1120.46875 407.371094 C 1118.890625 401.191406 1119.820312 396.246094 1121.160156 389.472656 C 1125.46875 367.8125 1137.578125 353.582031 1139.871094 350.964844 C 1142.878906 347.503906 1142 349.097656 1158 334.757812 C 1178.859375 316.0625 1177.269531 316.125 1181.871094 313.484375" fill="#d9af98"/></g><g id="change1_22"><path d="M 1316.539062 299.476562 C 1319.441406 300.570312 1321.859375 301.234375 1323.550781 301.640625 C 1326.371094 302.316406 1327.441406 302.34375 1329.71875 303.1875 C 1331.921875 303.996094 1332.558594 304.574219 1334.789062 305.640625 C 1336.488281 306.449219 1339.011719 307.496094 1342.351562 308.320312 C 1339.96875 311.105469 1337.648438 312.566406 1335.960938 313.386719 C 1334.300781 314.191406 1333.550781 314.230469 1331.539062 315.289062 C 1329.328125 316.457031 1328.128906 317.511719 1326.171875 319.066406 C 1321.308594 322.914062 1318.558594 325.089844 1317.828125 324.53125 C 1316.78125 323.730469 1321.539062 318.597656 1321.609375 311.832031 C 1321.671875 306.457031 1318.75 302.113281 1316.539062 299.476562" fill="#d9af98"/></g><g id="change1_23"><path d="M 1344.628906 390.804688 C 1351.828125 393.617188 1355.519531 396.90625 1357.570312 399.503906 C 1358.179688 400.261719 1359.25 401.738281 1361.128906 403.421875 C 1363.828125 405.828125 1366.570312 407.207031 1368.511719 408.007812 C 1365.921875 409.808594 1363.648438 410.585938 1362.019531 410.964844 C 1360.949219 411.210938 1360.898438 411.109375 1357.660156 411.617188 C 1354.640625 412.09375 1353.128906 412.332031 1351.648438 412.769531 C 1349.171875 413.503906 1348.328125 414.242188 1346.539062 415.023438 C 1344.488281 415.917969 1341.371094 416.800781 1336.859375 416.480469 C 1338.488281 415.152344 1342.769531 411.3125 1344.730469 404.652344 C 1346.628906 398.207031 1345.261719 392.832031 1344.628906 390.804688" fill="#d9af98"/></g><g id="change1_24"><path d="M 1313.71875 489.769531 C 1315.851562 495.191406 1318.339844 498.882812 1320.25 501.285156 C 1322.449219 504.03125 1324.109375 505.367188 1325.210938 508.585938 C 1325.949219 510.746094 1325.910156 512.238281 1327.128906 514.734375 C 1328.121094 516.777344 1329.359375 518.257812 1330.28125 519.210938 C 1325.96875 517.878906 1322.519531 517.6875 1320.160156 517.765625 C 1317.121094 517.859375 1315.710938 518.402344 1312.75 517.886719 C 1309.820312 517.378906 1309.058594 516.476562 1306.21875 515.652344 C 1304.191406 515.058594 1301.199219 514.535156 1297.21875 515.023438 C 1298.859375 514.445312 1308.578125 510.855469 1312.421875 500.855469 C 1314.148438 496.332031 1314.019531 492.21875 1313.71875 489.769531" fill="#d9af98"/></g><g clip-path="url(#a)" id="change1_29"><path d="M 1215.910156 512.648438 C 1218.429688 518.210938 1218.429688 521.867188 1217.910156 524.230469 C 1217.691406 525.199219 1217.21875 526.722656 1217.140625 529.046875 C 1217.070312 531.324219 1217.441406 532.207031 1217.460938 534.445312 C 1217.460938 535.734375 1217.351562 537.617188 1216.75 539.9375 C 1215.03125 537.492188 1213.230469 536.226562 1211.929688 535.527344 C 1209.75 534.359375 1208.910156 534.742188 1206.21875 533.382812 C 1203.761719 532.144531 1202.148438 530.65625 1201.148438 529.71875 C 1199.339844 528.027344 1198.050781 526.316406 1197.160156 524.910156 C 1199.621094 524.324219 1203.078125 523.210938 1206.761719 520.953125 C 1211.300781 518.179688 1214.230469 514.871094 1215.910156 512.648438" fill="#d9af98"/></g><g id="change1_25"><path d="M 1440.265625 172.035156 C 1447.136719 159.65625 1459.53125 148.144531 1469.351562 143.960938 C 1470.726562 143.375 1475.746094 141.355469 1481.746094 137.425781 C 1484.027344 135.929688 1486.527344 134.292969 1489.363281 131.636719 C 1490.8125 130.285156 1491.875 129.117188 1492.710938 128.078125 C 1495.796875 124.253906 1498.289062 121.519531 1498.773438 120.917969 C 1502.625 116.082031 1507.859375 109.550781 1515.582031 105.804688 C 1521.28125 103.046875 1521.503906 105.109375 1528.816406 101.824219 C 1536.449219 98.394531 1537.578125 95.527344 1542.277344 95.425781 C 1546.980469 95.324219 1551.539062 98.066406 1554.210938 101.753906 C 1557.519531 106.324219 1557.953125 112.402344 1555.925781 116.863281 C 1553.847656 121.445312 1550.589844 121.21875 1542.328125 128.460938 C 1537.621094 132.601562 1538.75 132.617188 1533.878906 137.0625 C 1526.273438 144.003906 1523.914062 143.605469 1516.109375 150.515625 C 1510.902344 155.113281 1507.554688 159.265625 1506.023438 161.089844 C 1501.523438 166.484375 1498.730469 171.636719 1497.058594 175.21875 C 1512.628906 171.25 1525.15625 169.433594 1533.828125 168.511719 C 1541.523438 167.6875 1544.195312 167.785156 1550.214844 166.382812 C 1558.617188 164.433594 1561.652344 162.328125 1576.5 157.890625 C 1583.832031 155.695312 1586.070312 155.320312 1588.417969 155.15625 C 1593.480469 154.796875 1594.652344 155.71875 1604.089844 156.414062 C 1613.691406 157.121094 1614.480469 156.3125 1616.558594 157.691406 C 1621.902344 161.21875 1623.695312 171.101562 1620.320312 177.980469 C 1617.222656 184.289062 1610.382812 186.8125 1606.472656 188.261719 C 1600.742188 190.371094 1598.402344 189.371094 1592.128906 192.082031 C 1587.742188 193.976562 1585.535156 195.910156 1582.742188 197.84375 C 1570.800781 206.09375 1565.324219 202.425781 1549.136719 210.773438 C 1542.621094 214.132812 1543.601562 214.675781 1534.464844 219.648438 C 1526.183594 224.15625 1519.03125 227.164062 1514.191406 229.03125 C 1527.777344 234.15625 1539.023438 236.433594 1546.886719 237.5625 C 1554.511719 238.65625 1556.226562 238.277344 1563.769531 239.789062 C 1575.5 242.144531 1577.144531 244.230469 1590.203125 246.917969 C 1598.070312 248.535156 1602.265625 249.402344 1608.429688 249.4375 C 1615.113281 249.476562 1616.871094 248.496094 1621.882812 249.507812 C 1624.371094 250.015625 1630.785156 251.394531 1636.222656 256.855469 C 1638.199219 258.839844 1642.023438 262.671875 1642.828125 268.910156 C 1642.917969 269.542969 1643.886719 277.988281 1638.191406 283.84375 C 1634.207031 287.9375 1629.234375 288.4375 1621.144531 289.132812 C 1606.453125 290.390625 1594.117188 287.144531 1592.917969 286.816406 C 1583.042969 284.132812 1580.160156 281.265625 1573.96875 282.726562 C 1570.660156 283.507812 1568.097656 285.128906 1563.207031 285.003906 C 1559.496094 284.910156 1557.738281 283.902344 1554.410156 283.105469 C 1548.460938 281.683594 1544.183594 282.546875 1538.445312 283.199219 C 1532.617188 283.859375 1523.996094 284.445312 1512.15625 283.972656 C 1517.246094 286.699219 1526.285156 291.78125 1534.554688 297.941406 C 1537.457031 300.101562 1537.792969 302.800781 1541.097656 305.375 C 1547.535156 310.375 1551.566406 308.511719 1557.851562 312.792969 C 1559.859375 314.160156 1566.453125 318.65625 1567.039062 326.167969 C 1567.503906 332.226562 1563.933594 338.574219 1558.324219 341.347656 C 1551.40625 344.769531 1544.40625 341.265625 1541.441406 339.773438 C 1537.277344 337.695312 1537.296875 336.21875 1532.707031 332.703125 C 1523.945312 326 1521.261719 329.34375 1509.804688 322.347656 C 1507.121094 320.714844 1500.425781 316.414062 1495.484375 313.734375 C 1494.203125 313.039062 1492.769531 312.339844 1490.886719 311.535156 C 1482.675781 308.007812 1481.941406 309.273438 1474.074219 305.777344 C 1465.875 302.132812 1466.214844 300.550781 1455.566406 294.695312 C 1443.757812 288.199219 1441.054688 288.890625 1436.242188 284.148438 C 1431.695312 279.671875 1429.941406 274.957031 1427.589844 268.464844 C 1420.078125 247.695312 1423.082031 229.253906 1423.6875 225.832031 C 1424.484375 221.308594 1424.554688 223.128906 1430.835938 202.582031 C 1439.027344 175.796875 1437.695312 176.675781 1440.265625 172.035156" fill="#d9af98"/></g><g id="change1_26"><path d="M 1548.300781 90.425781 C 1551.351562 89.863281 1553.761719 89.179688 1555.421875 88.65625 C 1558.191406 87.777344 1559.109375 87.246094 1561.5 86.789062 C 1563.808594 86.347656 1564.648438 86.511719 1567.109375 86.269531 C 1568.980469 86.085938 1571.691406 85.675781 1574.96875 84.65625 C 1574.371094 88.269531 1573.140625 90.714844 1572.121094 92.296875 C 1571.109375 93.84375 1570.488281 94.265625 1569.320312 96.207031 C 1568.019531 98.351562 1567.550781 99.871094 1566.671875 102.222656 C 1564.5 108.027344 1563.269531 111.304688 1562.359375 111.207031 C 1561.050781 111.066406 1562.46875 104.210938 1559.03125 98.378906 C 1556.300781 93.75 1551.558594 91.539062 1548.300781 90.425781" fill="#d9af98"/></g><g id="change1_27"><path d="M 1619.566406 154.082031 C 1627.183594 152.769531 1632.039062 153.675781 1635.144531 154.835938 C 1636.042969 155.175781 1637.734375 155.886719 1640.210938 156.355469 C 1643.761719 157.019531 1646.816406 156.785156 1648.890625 156.464844 C 1647.605469 159.34375 1646.070312 161.183594 1644.875 162.351562 C 1644.085938 163.117188 1643.984375 163.054688 1641.476562 165.164062 C 1639.140625 167.132812 1637.964844 168.117188 1636.925781 169.257812 C 1635.183594 171.167969 1634.839844 172.234375 1633.71875 173.828125 C 1632.433594 175.652344 1630.207031 178.019531 1626.179688 180.082031 C 1626.890625 178.097656 1628.570312 172.597656 1626.808594 165.882812 C 1625.097656 159.390625 1621.152344 155.496094 1619.566406 154.082031" fill="#d9af98"/></g><g clip-path="url(#b)" id="change1_30"><path d="M 1644.265625 254.777344 C 1648.894531 258.316406 1652.921875 260.195312 1655.816406 261.257812 C 1659.101562 262.476562 1661.21875 262.757812 1663.835938 264.945312 C 1665.570312 266.414062 1666.308594 267.710938 1668.640625 269.21875 C 1670.550781 270.453125 1672.367188 271.082031 1673.652344 271.421875 C 1669.277344 272.503906 1666.226562 274.128906 1664.246094 275.414062 C 1661.6875 277.066406 1660.777344 278.261719 1657.960938 279.347656 C 1655.191406 280.429688 1654.070312 280.050781 1651.214844 280.808594 C 1649.183594 281.351562 1646.339844 282.453125 1643.1875 284.929688 C 1644.304688 283.582031 1650.765625 275.484375 1648.875 264.945312 C 1648.023438 260.171875 1645.785156 256.71875 1644.265625 254.777344" fill="#d9af98"/></g><g id="change1_28"><path d="M 1572.359375 324.925781 C 1577.390625 328.386719 1579.28125 331.515625 1580.058594 333.808594 C 1580.371094 334.75 1580.75 336.296875 1581.890625 338.328125 C 1583.011719 340.3125 1583.78125 340.875 1584.949219 342.785156 C 1585.621094 343.882812 1586.5 345.554688 1587.191406 347.851562 C 1584.449219 346.648438 1582.261719 346.496094 1580.78125 346.570312 C 1578.308594 346.695312 1577.789062 347.457031 1574.78125 347.683594 C 1572.039062 347.894531 1569.890625 347.453125 1568.550781 347.167969 C 1566.128906 346.65625 1564.140625 345.855469 1562.648438 345.117188 C 1564.449219 343.34375 1566.839844 340.597656 1568.828125 336.765625 C 1571.28125 332.039062 1572.070312 327.695312 1572.359375 324.925781" fill="#d9af98"/></g></g></svg>